<?xml version="1.0" encoding="utf-8"?>
<!-- Generator: Adobe Illustrator 22.0.1, SVG Export Plug-In . SVG Version: 6.00 Build 0)  -->
<svg version="1.1" id="Layer_1" xmlns="http://www.w3.org/2000/svg" xmlns:xlink="http://www.w3.org/1999/xlink" x="0px" y="0px"
	 viewBox="0 0 1053 200" style="enable-background:new 0 0 1053 200;" xml:space="preserve">
<style type="text/css">
	.st0{fill:#484848;}
	.st1{fill:#F74356;}
</style>
<title>Logo</title>
<desc>Created with Sketch.</desc>
<g id="Logos">
	<g id="Name" transform="translate(-149.000000, -157.000000)">
		<g id="Logo" transform="translate(149.000000, 157.000000)">
			<path id="talkshop" class="st0" d="M73,151.1c-7.1,4.9-15.2,7.4-24.2,7.4c-9.2,0-16.3-2.6-21.4-7.9c-5.1-5.3-7.7-12.9-7.7-22.9
				V62.5H0.8V48h18.9V23.6l18.9-2.3V48h25.6l-2.1,14.6H38.6v64.4c0,5.6,1,9.7,3,12.2c2,2.5,5.3,3.8,9.9,3.8c4.2,0,9-1.4,14.4-4.3
				L73,151.1z M162.7,140.5c1.5,2.1,3.8,3.7,6.8,4.8l-4.3,13.1c-5.6-0.7-10.1-2.3-13.5-4.7c-3.4-2.5-5.9-6.3-7.6-11.5
				c-7.2,10.8-18,16.2-32.2,16.2c-10.7,0-19.1-3-25.2-9s-9.2-13.9-9.2-23.6c0-11.5,4.1-20.3,12.4-26.4s20-9.2,35.2-9.2h16.6v-8
				c0-7.7-1.8-13.1-5.5-16.4c-3.7-3.3-9.4-4.9-17-4.9c-7.9,0-17.6,1.9-29.1,5.7l-4.7-13.7c13.4-4.9,25.8-7.4,37.3-7.4
				c12.7,0,22.2,3.1,28.5,9.3s9.4,15.1,9.4,26.5v49.4C160.4,135.2,161.2,138.4,162.7,140.5z M141.5,127.5v-24.8h-14.1
				c-20,0-29.9,7.4-29.9,22.1c0,6.4,1.6,11.3,4.7,14.6s7.8,4.9,13.9,4.9C126.9,144.3,135.4,138.7,141.5,127.5z M198.7,152.2
				c-4-4.2-6-10-6-17.5V4.5l18.9-2.3v132c0,3,0.5,5.2,1.5,6.6s2.8,2.1,5.2,2.1c2.6,0,4.9-0.4,7-1.2l4.9,13.1
				c-4.5,2.5-9.5,3.7-15,3.7C208.2,158.5,202.7,156.4,198.7,152.2z M269.2,2.2V156h-18.9V4.5L269.2,2.2z M331.3,48l-39.8,47.8
				l44.3,60.3h-22.5l-42.8-59l39.8-49H331.3z M400,48.6c5.9,2.1,11.5,5.1,16.8,9.2l-8,11.9c-4.9-3.1-9.6-5.5-14-7
				c-4.4-1.5-9.1-2.3-14-2.3c-6.2,0-11,1.3-14.6,3.8c-3.6,2.5-5.3,6-5.3,10.4c0,4.4,1.7,7.8,5,10.2c3.3,2.5,9.4,4.9,18.1,7.2
				c12,3,21,7.1,27,12.3s8.9,12.3,8.9,21.3c0,10.7-4.1,18.8-12.4,24.4c-8.3,5.6-18.3,8.4-30.2,8.4c-16.4,0-30-4.7-40.8-14.1l10-11.5
				c9.2,7,19.3,10.5,30.3,10.5c7.1,0,12.7-1.5,16.9-4.4c4.2-2.9,6.3-6.9,6.3-12c0-3.7-0.8-6.7-2.3-8.9c-1.5-2.3-4.1-4.2-7.8-5.9
				c-3.7-1.7-9.1-3.5-16.2-5.4c-11.5-3-19.8-7-24.9-12.1c-5.1-5.1-7.7-11.5-7.7-19.3c0-5.6,1.7-10.7,5-15.3s8-8.1,13.9-10.7
				c5.9-2.5,12.6-3.8,20-3.8S394.2,46.5,400,48.6z M517.1,54.3c5.5,5.9,8.3,13.9,8.3,24.2V156h-18.9V81.2c0-7.7-1.5-13.1-4.4-16.2
				c-2.9-3.1-7.2-4.7-12.8-4.7s-10.6,1.6-15,4.9c-4.4,3.3-8.5,7.9-12.3,13.9V156h-18.9V4.7l18.9-2v60.3c8.5-11.6,19.1-17.4,32-17.4
				C503.8,45.5,511.5,48.4,517.1,54.3z M635.8,60.7c8.4,10.1,12.6,23.8,12.6,41.2c0,11.2-1.9,21.1-5.7,29.6
				c-3.8,8.5-9.4,15.2-16.6,19.9c-7.2,4.7-15.9,7.1-25.8,7.1c-15.2,0-27-5.1-35.5-15.2c-8.5-10.1-12.7-23.8-12.7-41.2
				c0-11.2,1.9-21.1,5.7-29.6c3.8-8.5,9.4-15.2,16.6-19.9s15.9-7.1,26-7.1C615.6,45.5,627.4,50.6,635.8,60.7z M572.4,102.1
				c0,27.5,9.3,41.2,27.9,41.2c18.6,0,27.9-13.8,27.9-41.4c0-27.5-9.2-41.2-27.7-41.2C581.7,60.7,572.4,74.5,572.4,102.1z
				 M756.1,60.3c6.4,9.8,9.6,23.7,9.6,41.6c0,16.9-3.7,30.6-11.1,41c-7.4,10.4-17.8,15.6-31.4,15.6c-12,0-21.5-4.1-28.3-12.3v51.2
				l-18.9,2.3V48h16.2l1.4,14.6c4-5.5,8.7-9.7,14.3-12.6c5.6-2.9,11.5-4.4,17.6-4.4C739.6,45.5,749.7,50.4,756.1,60.3z M745.5,101.9
				c0-27.6-8.1-41.4-24.4-41.4c-5.3,0-10.2,1.6-14.6,4.7c-4.4,3.1-8.2,7.2-11.5,12.1V130c2.7,4.2,6.1,7.5,10.2,9.7s8.6,3.4,13.5,3.4
				C736.6,143.1,745.5,129.4,745.5,101.9z"/>
			<path id="live" class="st1" d="M803.5,156h-9.9V0.2h9.9V156z M846.3,156h-9.9V47.2h9.9V156z M835,17c0-6.4,2.1-9.6,6.3-9.6
				c2.1,0,3.7,0.8,4.9,2.5c1.2,1.7,1.8,4,1.8,7.1c0,3-0.6,5.4-1.8,7.1c-1.2,1.7-2.8,2.6-4.9,2.6C837.1,26.7,835,23.4,835,17z
				 M903.1,156L861,47.2h10.2l28.1,74c3.7,9.5,6.5,17.8,8.4,24.8h0.6c2.7-9.1,5.5-17.4,8.4-25l28.1-73.8h10.2l-42,108.8H903.1z
				 M1013.8,158c-15.8,0-28.1-4.9-37-14.6c-8.8-9.7-13.3-23.4-13.3-40.9c0-17.4,4.3-31.2,12.8-41.7s20.1-15.7,34.5-15.7
				c12.8,0,22.9,4.5,30.3,13.4s11.1,21.1,11.1,36.4v8H974c0.1,14.9,3.6,26.4,10.5,34.2s16.6,11.8,29.4,11.8c6.2,0,11.7-0.4,16.4-1.3
				s10.7-2.7,17.9-5.6v9c-6.1,2.7-11.8,4.5-17,5.5S1020.1,158,1013.8,158z M1010.9,53.9c-10.5,0-18.9,3.5-25.2,10.4
				s-10,16.9-11.1,29.9h67.3c0-12.6-2.7-22.5-8.2-29.6S1020.6,53.9,1010.9,53.9z"/>
		</g>
	</g>
</g>
<g>
	<path class="st0" d="M1047,20.1c1.5,0.9,2.7,2.1,3.6,3.6s1.3,3.2,1.3,5c0,1.8-0.4,3.5-1.3,5s-2.1,2.7-3.6,3.6
		c-1.5,0.9-3.2,1.3-5,1.3c-1.8,0-3.4-0.4-5-1.3c-1.5-0.9-2.7-2.1-3.6-3.6c-0.9-1.5-1.3-3.2-1.3-5c0-1.8,0.4-3.5,1.3-5
		c0.9-1.5,2.1-2.7,3.6-3.6c1.5-0.9,3.2-1.3,5-1.3C1043.8,18.7,1045.5,19.2,1047,20.1z M1046,35.7c1.2-0.7,2.1-1.6,2.8-2.9
		c0.7-1.2,1-2.6,1-4.1c0-1.5-0.3-2.9-1-4.2c-0.7-1.2-1.6-2.2-2.8-2.9c-1.2-0.7-2.5-1.1-4-1.1c-1.5,0-2.8,0.4-3.9,1.1
		c-1.2,0.7-2.1,1.7-2.7,2.9c-0.7,1.2-1,2.6-1,4.2c0,1.5,0.3,2.9,1,4.1c0.7,1.2,1.6,2.2,2.7,2.9c1.2,0.7,2.5,1,3.9,1
		C1043.4,36.8,1044.8,36.4,1046,35.7z M1045.5,28.4c-0.5,0.5-1.1,0.9-1.8,1.1l2.9,4.5h-2.6l-2.4-4.1h-0.9V34h-2.2V23.2h3
		c3.2,0,4.8,1.1,4.8,3.3C1046.2,27.2,1046,27.9,1045.5,28.4z M1040.6,28.1h1.2c1.4,0,2.1-0.5,2.1-1.6c0-0.5-0.2-0.9-0.5-1.2
		c-0.4-0.2-0.9-0.4-1.7-0.4h-1.1V28.1z"/>
</g>
</svg>
