<svg width="290" height="192" viewBox="0 0 290 192" xmlns="http://www.w3.org/2000/svg"><title>Logo-Cart</title><g fill="none" fill-rule="evenodd"><path d="M169.734 76.8h89.105a2 2 0 0 1 1.83 2.806l-38.52 87.467a5 5 0 0 1-4.575 2.985H101.05a5 5 0 0 1-4.816-3.653l-44.3-158.36C50.64 3.29 46.198 0 41.205 0H11.99C6.605 0 .003 3.895.005 11 .006 18.105 5.2 21.942 11.99 21.942h17.095a5 5 0 0 1 4.815 3.653l44.304 158.36C79.498 188.71 83.937 192 88.933 192h139.302c4.442 0 8.324-2.558 10.176-6.583l50.69-115.2c1.479-3.473 1.109-7.315-.925-10.422-2.037-3.11-5.55-4.939-9.252-4.939H169.965a39.018 39.018 0 0 1 1.452 10.577c0 3.953-.589 7.77-1.683 11.367z" fill="#00BBD8"/><circle fill="#F74356" cx="132" cy="65" r="27"/></g></svg>
